<svg width="588" height="140" viewBox="0 0 588 140" fill="none" xmlns="http://www.w3.org/2000/svg">
<path d="M580 81.4114C580 83.9173 580 89.4567 579.876 98.2933C579.753 107.13 579.629 113.988 579.629 119H566.888C566.888 114.516 567.012 108.185 567.135 100.008C567.259 91.9626 567.259 86.687 567.259 84.1811C567.259 76.3996 566.393 70.7283 564.785 67.4311C563.301 64.3976 560.951 62.9469 557.734 62.9469C554.147 62.9469 549.57 65.4528 544.004 70.3327C544.499 73.498 544.746 77.0591 544.746 81.1476V119H532.129V84.1811C532.129 70.0689 529.037 62.9469 522.728 62.9469C519.141 62.9469 514.811 65.189 509.74 69.5413V119H497V53.3189H507.513L508.503 60.7047C514.317 54.9016 520.502 52 527.058 52C534.108 52 539.056 55.2972 541.778 62.0236C548.828 55.2972 555.632 52 562.064 52C574.063 52 580 61.7598 580 81.4114Z" fill="#FF9100"/>
<path d="M486 98.969C486 110.698 477.171 119 462.779 119C456.611 119 450.684 117.287 445 113.992L446.209 106.744C452.619 108.457 457.336 109.248 460.602 109.248C468.705 109.248 472.817 106.349 472.817 100.55C472.817 95.2791 470.519 92.7752 461.206 88.9535C449.475 84.2093 445.242 79.2016 445.242 70.1086C445.242 58.6434 453.466 51 466.044 51C471.487 51 476.566 52.4496 481.525 55.2171L480.074 62.4652C475.841 61.1473 471.97 60.4884 468.463 60.4884C461.569 60.4884 458.183 63.2559 458.183 68.659C458.183 73.4031 460.844 75.7752 470.156 79.4651C481.404 83.814 486 89.4806 486 98.969Z" fill="#FF9100"/>
<path d="M434 70.8608V117.685H424.204L423.225 110.582C417.225 116.238 410.857 119 404.367 119C392.122 119 386 112.95 386 100.849C386 93.8782 388.449 88.4855 393.469 84.6712C398.857 80.5938 406.694 78.4894 417.102 78.4894H421.51V72.5706C421.51 64.8105 417.347 60.8646 408.898 60.8646C403.388 60.8646 397.51 62.1799 391.02 64.679L389.184 56.3926C396.776 52.8414 404.49 51 412.327 51C426.775 51 434 57.5764 434 70.8608ZM421.51 102.559V87.0387H416.245C404.367 87.0387 398.49 90.9845 398.49 98.8762C398.49 105.716 401.673 109.135 407.918 109.135C412.204 109.135 416.735 106.899 421.51 102.559Z" fill="#FF9100"/>
<path d="M369.282 31H382C375.703 62.9407 368.665 92.2741 360.886 119H346.317L333.722 66.5911L331.13 53.4237H331.006L328.66 66.7215L316.93 119H302.237C294.211 91.7526 287.174 62.4193 281 31H295.323C297.175 41.2993 302.361 64.7659 310.757 101.27H310.88L312.732 90.9704L326.067 31H338.785L354.836 101.27H355.083C361.627 71.6756 366.319 48.3393 369.282 31Z" fill="#FF9100"/>
<path d="M280.468 109.314L281 117.541C277.809 118.469 274.22 119 270.098 119C265.711 119 262.786 118.204 261.058 116.479C259.064 114.489 258 111.039 258 105.865V24H271.694V100.557C271.694 105.732 272.491 108.518 274.087 109.182C274.619 109.314 275.416 109.447 276.48 109.447C276.879 109.447 277.543 109.447 278.474 109.314H280.468Z" fill="white"/>
<path d="M240 70.8607V117.685H229.592L228.551 110.582C222.176 116.238 215.411 119 208.515 119C195.505 119 189 112.95 189 100.849C189 93.8782 191.602 88.4855 196.936 84.6712C202.661 80.5938 210.987 78.4894 222.046 78.4894H226.73V72.5706C226.73 64.8104 222.306 60.8646 213.329 60.8646C207.475 60.8646 201.23 62.1799 194.334 64.6789L192.383 56.3926C200.449 52.8414 208.645 51 216.972 51C232.324 51 240 57.5764 240 70.8607ZM226.73 102.559V87.0387H221.135C208.515 87.0387 202.27 90.9845 202.27 98.8762C202.27 105.716 205.653 109.135 212.288 109.135C216.842 109.135 221.656 106.899 226.73 102.559Z" fill="white"/>
<path d="M177 70.8607V117.685H166.388L165.327 110.582C158.827 116.238 151.929 119 144.898 119C131.633 119 125 112.95 125 100.849C125 93.8782 127.653 88.4855 133.091 84.6712C138.928 80.5938 147.419 78.4894 158.694 78.4894H163.47V72.5706C163.47 64.8104 158.96 60.8646 149.806 60.8646C143.837 60.8646 137.469 62.1799 130.438 64.6789L128.448 56.3926C136.673 52.8414 145.031 51 153.521 51C169.174 51 177 57.5764 177 70.8607ZM163.47 102.559V87.0387H157.765C144.898 87.0387 138.531 90.9845 138.531 98.8762C138.531 105.716 141.98 109.135 148.745 109.135C153.388 109.135 158.296 106.899 163.47 102.559Z" fill="white"/>
<path d="M120 52.4753L118.442 64.8146C116.106 64.144 114.29 63.8757 112.992 63.8757C109.748 63.8757 105.206 67.6311 99.3667 75.0079V119H86V52.2071H97.0304L98.1988 63.4734C104.428 55.1578 109.748 51 114.29 51C116.237 51 118.053 51.5365 120 52.4753Z" fill="white"/>
<path d="M69 68.3281V108.787C61.0727 115.596 51.3987 119 40.1123 119C18.7489 119 8 104.335 8 74.8748C8 59.9482 11.359 48.295 18.2115 39.7842C24.6608 31.9281 33.1256 28 43.6057 28C53.5485 28 61.7445 32.059 68.1938 40.046L61.8789 46.0691C55.8326 41.4863 49.9207 39.2604 44.4119 39.2604C37.8282 39.2604 32.5881 42.0101 28.9604 47.5094C25.0639 53.4014 23.1828 61.6504 23.1828 72.3871C23.1828 95.8245 29.6322 107.609 42.6652 107.609C47.6366 107.609 51.6674 106.299 54.7577 103.812V78.8029H42.7996V68.3281H69Z" fill="white"/>
</svg>
