<?xml version="1.0" encoding="utf-8" standalone="no"?>
<!DOCTYPE svg PUBLIC "-//W3C//DTD SVG 1.1//EN"
  "http://www.w3.org/Graphics/SVG/1.1/DTD/svg11.dtd">
<svg xmlns:xlink="http://www.w3.org/1999/xlink" width="453.962549pt" height="351.900334pt" viewBox="0 0 453.962549 351.900334" xmlns="http://www.w3.org/2000/svg" version="1.1">
 <metadata>
  <rdf:RDF xmlns:dc="http://purl.org/dc/elements/1.1/" xmlns:cc="http://creativecommons.org/ns#" xmlns:rdf="http://www.w3.org/1999/02/22-rdf-syntax-ns#">
   <cc:Work>
    <dc:type rdf:resource="http://purl.org/dc/dcmitype/StillImage"/>
    <dc:date>2022-07-06T15:15:18.252390</dc:date>
    <dc:format>image/svg+xml</dc:format>
    <dc:creator>
     <cc:Agent>
      <dc:title>Matplotlib v3.5.2, https://matplotlib.org/</dc:title>
     </cc:Agent>
    </dc:creator>
   </cc:Work>
  </rdf:RDF>
 </metadata>
 <defs>
  <style type="text/css">*{stroke-linejoin: round; stroke-linecap: butt}</style>
 </defs>
 <g id="figure_1">
  <g id="patch_1">
   <path d="M 0 351.900334 
L 453.962549 351.900334 
L 453.962549 0 
L 0 0 
z
" style="fill: #ffffff"/>
  </g>
  <g id="axes_1">
   <g id="patch_2">
    <path d="M 50.14375 314.344084 
L 334.355749 314.344084 
L 334.355749 9.407027 
L 50.14375 9.407027 
z
" style="fill: #ffffff"/>
   </g>
   <g id="PathCollection_1"/>
   <g id="PathCollection_2"/>
   <g id="matplotlib.axis_1">
    <g id="xtick_1">
     <g id="line2d_1">
      <defs>
       <path id="m9ba38188ce" d="M 0 0 
L 0 3.5 
" style="stroke: #000000; stroke-width: 0.8"/>
      </defs>
      <g>
       <use xlink:href="#m9ba38188ce" x="121.19675" y="314.344084" style="stroke: #000000; stroke-width: 0.8"/>
      </g>
     </g>
     <g id="text_1">
      <!-- node source pos -->
      <g transform="translate(80.099875 328.942521)scale(0.1 -0.1)">
       <defs>
        <path id="DejaVuSans-6e" d="M 3513 2113 
L 3513 0 
L 2938 0 
L 2938 2094 
Q 2938 2591 2744 2837 
Q 2550 3084 2163 3084 
Q 1697 3084 1428 2787 
Q 1159 2491 1159 1978 
L 1159 0 
L 581 0 
L 581 3500 
L 1159 3500 
L 1159 2956 
Q 1366 3272 1645 3428 
Q 1925 3584 2291 3584 
Q 2894 3584 3203 3211 
Q 3513 2838 3513 2113 
z
" transform="scale(0.015625)"/>
        <path id="DejaVuSans-6f" d="M 1959 3097 
Q 1497 3097 1228 2736 
Q 959 2375 959 1747 
Q 959 1119 1226 758 
Q 1494 397 1959 397 
Q 2419 397 2687 759 
Q 2956 1122 2956 1747 
Q 2956 2369 2687 2733 
Q 2419 3097 1959 3097 
z
M 1959 3584 
Q 2709 3584 3137 3096 
Q 3566 2609 3566 1747 
Q 3566 888 3137 398 
Q 2709 -91 1959 -91 
Q 1206 -91 779 398 
Q 353 888 353 1747 
Q 353 2609 779 3096 
Q 1206 3584 1959 3584 
z
" transform="scale(0.015625)"/>
        <path id="DejaVuSans-64" d="M 2906 2969 
L 2906 4863 
L 3481 4863 
L 3481 0 
L 2906 0 
L 2906 525 
Q 2725 213 2448 61 
Q 2172 -91 1784 -91 
Q 1150 -91 751 415 
Q 353 922 353 1747 
Q 353 2572 751 3078 
Q 1150 3584 1784 3584 
Q 2172 3584 2448 3432 
Q 2725 3281 2906 2969 
z
M 947 1747 
Q 947 1113 1208 752 
Q 1469 391 1925 391 
Q 2381 391 2643 752 
Q 2906 1113 2906 1747 
Q 2906 2381 2643 2742 
Q 2381 3103 1925 3103 
Q 1469 3103 1208 2742 
Q 947 2381 947 1747 
z
" transform="scale(0.015625)"/>
        <path id="DejaVuSans-65" d="M 3597 1894 
L 3597 1613 
L 953 1613 
Q 991 1019 1311 708 
Q 1631 397 2203 397 
Q 2534 397 2845 478 
Q 3156 559 3463 722 
L 3463 178 
Q 3153 47 2828 -22 
Q 2503 -91 2169 -91 
Q 1331 -91 842 396 
Q 353 884 353 1716 
Q 353 2575 817 3079 
Q 1281 3584 2069 3584 
Q 2775 3584 3186 3129 
Q 3597 2675 3597 1894 
z
M 3022 2063 
Q 3016 2534 2758 2815 
Q 2500 3097 2075 3097 
Q 1594 3097 1305 2825 
Q 1016 2553 972 2059 
L 3022 2063 
z
" transform="scale(0.015625)"/>
        <path id="DejaVuSans-20" transform="scale(0.015625)"/>
        <path id="DejaVuSans-73" d="M 2834 3397 
L 2834 2853 
Q 2591 2978 2328 3040 
Q 2066 3103 1784 3103 
Q 1356 3103 1142 2972 
Q 928 2841 928 2578 
Q 928 2378 1081 2264 
Q 1234 2150 1697 2047 
L 1894 2003 
Q 2506 1872 2764 1633 
Q 3022 1394 3022 966 
Q 3022 478 2636 193 
Q 2250 -91 1575 -91 
Q 1294 -91 989 -36 
Q 684 19 347 128 
L 347 722 
Q 666 556 975 473 
Q 1284 391 1588 391 
Q 1994 391 2212 530 
Q 2431 669 2431 922 
Q 2431 1156 2273 1281 
Q 2116 1406 1581 1522 
L 1381 1569 
Q 847 1681 609 1914 
Q 372 2147 372 2553 
Q 372 3047 722 3315 
Q 1072 3584 1716 3584 
Q 2034 3584 2315 3537 
Q 2597 3491 2834 3397 
z
" transform="scale(0.015625)"/>
        <path id="DejaVuSans-75" d="M 544 1381 
L 544 3500 
L 1119 3500 
L 1119 1403 
Q 1119 906 1312 657 
Q 1506 409 1894 409 
Q 2359 409 2629 706 
Q 2900 1003 2900 1516 
L 2900 3500 
L 3475 3500 
L 3475 0 
L 2900 0 
L 2900 538 
Q 2691 219 2414 64 
Q 2138 -91 1772 -91 
Q 1169 -91 856 284 
Q 544 659 544 1381 
z
M 1991 3584 
L 1991 3584 
z
" transform="scale(0.015625)"/>
        <path id="DejaVuSans-72" d="M 2631 2963 
Q 2534 3019 2420 3045 
Q 2306 3072 2169 3072 
Q 1681 3072 1420 2755 
Q 1159 2438 1159 1844 
L 1159 0 
L 581 0 
L 581 3500 
L 1159 3500 
L 1159 2956 
Q 1341 3275 1631 3429 
Q 1922 3584 2338 3584 
Q 2397 3584 2469 3576 
Q 2541 3569 2628 3553 
L 2631 2963 
z
" transform="scale(0.015625)"/>
        <path id="DejaVuSans-63" d="M 3122 3366 
L 3122 2828 
Q 2878 2963 2633 3030 
Q 2388 3097 2138 3097 
Q 1578 3097 1268 2742 
Q 959 2388 959 1747 
Q 959 1106 1268 751 
Q 1578 397 2138 397 
Q 2388 397 2633 464 
Q 2878 531 3122 666 
L 3122 134 
Q 2881 22 2623 -34 
Q 2366 -91 2075 -91 
Q 1284 -91 818 406 
Q 353 903 353 1747 
Q 353 2603 823 3093 
Q 1294 3584 2113 3584 
Q 2378 3584 2631 3529 
Q 2884 3475 3122 3366 
z
" transform="scale(0.015625)"/>
        <path id="DejaVuSans-70" d="M 1159 525 
L 1159 -1331 
L 581 -1331 
L 581 3500 
L 1159 3500 
L 1159 2969 
Q 1341 3281 1617 3432 
Q 1894 3584 2278 3584 
Q 2916 3584 3314 3078 
Q 3713 2572 3713 1747 
Q 3713 922 3314 415 
Q 2916 -91 2278 -91 
Q 1894 -91 1617 61 
Q 1341 213 1159 525 
z
M 3116 1747 
Q 3116 2381 2855 2742 
Q 2594 3103 2138 3103 
Q 1681 3103 1420 2742 
Q 1159 2381 1159 1747 
Q 1159 1113 1420 752 
Q 1681 391 2138 391 
Q 2594 391 2855 752 
Q 3116 1113 3116 1747 
z
" transform="scale(0.015625)"/>
       </defs>
       <use xlink:href="#DejaVuSans-6e"/>
       <use xlink:href="#DejaVuSans-6f" x="63.378906"/>
       <use xlink:href="#DejaVuSans-64" x="124.560547"/>
       <use xlink:href="#DejaVuSans-65" x="188.037109"/>
       <use xlink:href="#DejaVuSans-20" x="249.560547"/>
       <use xlink:href="#DejaVuSans-73" x="281.347656"/>
       <use xlink:href="#DejaVuSans-6f" x="333.447266"/>
       <use xlink:href="#DejaVuSans-75" x="394.628906"/>
       <use xlink:href="#DejaVuSans-72" x="458.007812"/>
       <use xlink:href="#DejaVuSans-63" x="496.871094"/>
       <use xlink:href="#DejaVuSans-65" x="551.851562"/>
       <use xlink:href="#DejaVuSans-20" x="613.375"/>
       <use xlink:href="#DejaVuSans-70" x="645.162109"/>
       <use xlink:href="#DejaVuSans-6f" x="708.638672"/>
       <use xlink:href="#DejaVuSans-73" x="769.820312"/>
      </g>
     </g>
    </g>
    <g id="xtick_2">
     <g id="line2d_2">
      <g>
       <use xlink:href="#m9ba38188ce" x="263.302749" y="314.344084" style="stroke: #000000; stroke-width: 0.8"/>
      </g>
     </g>
     <g id="text_2">
      <!-- optimization log -->
      <g transform="translate(222.983218 328.942521)scale(0.1 -0.1)">
       <defs>
        <path id="DejaVuSans-74" d="M 1172 4494 
L 1172 3500 
L 2356 3500 
L 2356 3053 
L 1172 3053 
L 1172 1153 
Q 1172 725 1289 603 
Q 1406 481 1766 481 
L 2356 481 
L 2356 0 
L 1766 0 
Q 1100 0 847 248 
Q 594 497 594 1153 
L 594 3053 
L 172 3053 
L 172 3500 
L 594 3500 
L 594 4494 
L 1172 4494 
z
" transform="scale(0.015625)"/>
        <path id="DejaVuSans-69" d="M 603 3500 
L 1178 3500 
L 1178 0 
L 603 0 
L 603 3500 
z
M 603 4863 
L 1178 4863 
L 1178 4134 
L 603 4134 
L 603 4863 
z
" transform="scale(0.015625)"/>
        <path id="DejaVuSans-6d" d="M 3328 2828 
Q 3544 3216 3844 3400 
Q 4144 3584 4550 3584 
Q 5097 3584 5394 3201 
Q 5691 2819 5691 2113 
L 5691 0 
L 5113 0 
L 5113 2094 
Q 5113 2597 4934 2840 
Q 4756 3084 4391 3084 
Q 3944 3084 3684 2787 
Q 3425 2491 3425 1978 
L 3425 0 
L 2847 0 
L 2847 2094 
Q 2847 2600 2669 2842 
Q 2491 3084 2119 3084 
Q 1678 3084 1418 2786 
Q 1159 2488 1159 1978 
L 1159 0 
L 581 0 
L 581 3500 
L 1159 3500 
L 1159 2956 
Q 1356 3278 1631 3431 
Q 1906 3584 2284 3584 
Q 2666 3584 2933 3390 
Q 3200 3197 3328 2828 
z
" transform="scale(0.015625)"/>
        <path id="DejaVuSans-7a" d="M 353 3500 
L 3084 3500 
L 3084 2975 
L 922 459 
L 3084 459 
L 3084 0 
L 275 0 
L 275 525 
L 2438 3041 
L 353 3041 
L 353 3500 
z
" transform="scale(0.015625)"/>
        <path id="DejaVuSans-61" d="M 2194 1759 
Q 1497 1759 1228 1600 
Q 959 1441 959 1056 
Q 959 750 1161 570 
Q 1363 391 1709 391 
Q 2188 391 2477 730 
Q 2766 1069 2766 1631 
L 2766 1759 
L 2194 1759 
z
M 3341 1997 
L 3341 0 
L 2766 0 
L 2766 531 
Q 2569 213 2275 61 
Q 1981 -91 1556 -91 
Q 1019 -91 701 211 
Q 384 513 384 1019 
Q 384 1609 779 1909 
Q 1175 2209 1959 2209 
L 2766 2209 
L 2766 2266 
Q 2766 2663 2505 2880 
Q 2244 3097 1772 3097 
Q 1472 3097 1187 3025 
Q 903 2953 641 2809 
L 641 3341 
Q 956 3463 1253 3523 
Q 1550 3584 1831 3584 
Q 2591 3584 2966 3190 
Q 3341 2797 3341 1997 
z
" transform="scale(0.015625)"/>
        <path id="DejaVuSans-6c" d="M 603 4863 
L 1178 4863 
L 1178 0 
L 603 0 
L 603 4863 
z
" transform="scale(0.015625)"/>
        <path id="DejaVuSans-67" d="M 2906 1791 
Q 2906 2416 2648 2759 
Q 2391 3103 1925 3103 
Q 1463 3103 1205 2759 
Q 947 2416 947 1791 
Q 947 1169 1205 825 
Q 1463 481 1925 481 
Q 2391 481 2648 825 
Q 2906 1169 2906 1791 
z
M 3481 434 
Q 3481 -459 3084 -895 
Q 2688 -1331 1869 -1331 
Q 1566 -1331 1297 -1286 
Q 1028 -1241 775 -1147 
L 775 -588 
Q 1028 -725 1275 -790 
Q 1522 -856 1778 -856 
Q 2344 -856 2625 -561 
Q 2906 -266 2906 331 
L 2906 616 
Q 2728 306 2450 153 
Q 2172 0 1784 0 
Q 1141 0 747 490 
Q 353 981 353 1791 
Q 353 2603 747 3093 
Q 1141 3584 1784 3584 
Q 2172 3584 2450 3431 
Q 2728 3278 2906 2969 
L 2906 3500 
L 3481 3500 
L 3481 434 
z
" transform="scale(0.015625)"/>
       </defs>
       <use xlink:href="#DejaVuSans-6f"/>
       <use xlink:href="#DejaVuSans-70" x="61.181641"/>
       <use xlink:href="#DejaVuSans-74" x="124.658203"/>
       <use xlink:href="#DejaVuSans-69" x="163.867188"/>
       <use xlink:href="#DejaVuSans-6d" x="191.650391"/>
       <use xlink:href="#DejaVuSans-69" x="289.0625"/>
       <use xlink:href="#DejaVuSans-7a" x="316.845703"/>
       <use xlink:href="#DejaVuSans-61" x="369.335938"/>
       <use xlink:href="#DejaVuSans-74" x="430.615234"/>
       <use xlink:href="#DejaVuSans-69" x="469.824219"/>
       <use xlink:href="#DejaVuSans-6f" x="497.607422"/>
       <use xlink:href="#DejaVuSans-6e" x="558.789062"/>
       <use xlink:href="#DejaVuSans-20" x="622.167969"/>
       <use xlink:href="#DejaVuSans-6c" x="653.955078"/>
       <use xlink:href="#DejaVuSans-6f" x="681.738281"/>
       <use xlink:href="#DejaVuSans-67" x="742.919922"/>
      </g>
     </g>
    </g>
    <g id="text_3">
     <!-- variant -->
     <g transform="translate(174.588812 342.620646)scale(0.1 -0.1)">
      <defs>
       <path id="DejaVuSans-76" d="M 191 3500 
L 800 3500 
L 1894 563 
L 2988 3500 
L 3597 3500 
L 2284 0 
L 1503 0 
L 191 3500 
z
" transform="scale(0.015625)"/>
      </defs>
      <use xlink:href="#DejaVuSans-76"/>
      <use xlink:href="#DejaVuSans-61" x="59.179688"/>
      <use xlink:href="#DejaVuSans-72" x="120.458984"/>
      <use xlink:href="#DejaVuSans-69" x="161.572266"/>
      <use xlink:href="#DejaVuSans-61" x="189.355469"/>
      <use xlink:href="#DejaVuSans-6e" x="250.634766"/>
      <use xlink:href="#DejaVuSans-74" x="314.013672"/>
     </g>
    </g>
   </g>
   <g id="matplotlib.axis_2">
    <g id="ytick_1">
     <g id="line2d_3">
      <defs>
       <path id="mda81f8a8ed" d="M 0 0 
L -3.5 0 
" style="stroke: #000000; stroke-width: 0.8"/>
      </defs>
      <g>
       <use xlink:href="#mda81f8a8ed" x="50.14375" y="309.389376" style="stroke: #000000; stroke-width: 0.8"/>
      </g>
     </g>
     <g id="text_4">
      <!-- 0.75 -->
      <g transform="translate(20.878125 313.188595)scale(0.1 -0.1)">
       <defs>
        <path id="DejaVuSans-30" d="M 2034 4250 
Q 1547 4250 1301 3770 
Q 1056 3291 1056 2328 
Q 1056 1369 1301 889 
Q 1547 409 2034 409 
Q 2525 409 2770 889 
Q 3016 1369 3016 2328 
Q 3016 3291 2770 3770 
Q 2525 4250 2034 4250 
z
M 2034 4750 
Q 2819 4750 3233 4129 
Q 3647 3509 3647 2328 
Q 3647 1150 3233 529 
Q 2819 -91 2034 -91 
Q 1250 -91 836 529 
Q 422 1150 422 2328 
Q 422 3509 836 4129 
Q 1250 4750 2034 4750 
z
" transform="scale(0.015625)"/>
        <path id="DejaVuSans-2e" d="M 684 794 
L 1344 794 
L 1344 0 
L 684 0 
L 684 794 
z
" transform="scale(0.015625)"/>
        <path id="DejaVuSans-37" d="M 525 4666 
L 3525 4666 
L 3525 4397 
L 1831 0 
L 1172 0 
L 2766 4134 
L 525 4134 
L 525 4666 
z
" transform="scale(0.015625)"/>
        <path id="DejaVuSans-35" d="M 691 4666 
L 3169 4666 
L 3169 4134 
L 1269 4134 
L 1269 2991 
Q 1406 3038 1543 3061 
Q 1681 3084 1819 3084 
Q 2600 3084 3056 2656 
Q 3513 2228 3513 1497 
Q 3513 744 3044 326 
Q 2575 -91 1722 -91 
Q 1428 -91 1123 -41 
Q 819 9 494 109 
L 494 744 
Q 775 591 1075 516 
Q 1375 441 1709 441 
Q 2250 441 2565 725 
Q 2881 1009 2881 1497 
Q 2881 1984 2565 2268 
Q 2250 2553 1709 2553 
Q 1456 2553 1204 2497 
Q 953 2441 691 2322 
L 691 4666 
z
" transform="scale(0.015625)"/>
       </defs>
       <use xlink:href="#DejaVuSans-30"/>
       <use xlink:href="#DejaVuSans-2e" x="63.623047"/>
       <use xlink:href="#DejaVuSans-37" x="95.410156"/>
       <use xlink:href="#DejaVuSans-35" x="159.033203"/>
      </g>
     </g>
    </g>
    <g id="ytick_2">
     <g id="line2d_4">
      <g>
       <use xlink:href="#mda81f8a8ed" x="50.14375" y="259.657683" style="stroke: #000000; stroke-width: 0.8"/>
      </g>
     </g>
     <g id="text_5">
      <!-- 0.80 -->
      <g transform="translate(20.878125 263.456902)scale(0.1 -0.1)">
       <defs>
        <path id="DejaVuSans-38" d="M 2034 2216 
Q 1584 2216 1326 1975 
Q 1069 1734 1069 1313 
Q 1069 891 1326 650 
Q 1584 409 2034 409 
Q 2484 409 2743 651 
Q 3003 894 3003 1313 
Q 3003 1734 2745 1975 
Q 2488 2216 2034 2216 
z
M 1403 2484 
Q 997 2584 770 2862 
Q 544 3141 544 3541 
Q 544 4100 942 4425 
Q 1341 4750 2034 4750 
Q 2731 4750 3128 4425 
Q 3525 4100 3525 3541 
Q 3525 3141 3298 2862 
Q 3072 2584 2669 2484 
Q 3125 2378 3379 2068 
Q 3634 1759 3634 1313 
Q 3634 634 3220 271 
Q 2806 -91 2034 -91 
Q 1263 -91 848 271 
Q 434 634 434 1313 
Q 434 1759 690 2068 
Q 947 2378 1403 2484 
z
M 1172 3481 
Q 1172 3119 1398 2916 
Q 1625 2713 2034 2713 
Q 2441 2713 2670 2916 
Q 2900 3119 2900 3481 
Q 2900 3844 2670 4047 
Q 2441 4250 2034 4250 
Q 1625 4250 1398 4047 
Q 1172 3844 1172 3481 
z
" transform="scale(0.015625)"/>
       </defs>
       <use xlink:href="#DejaVuSans-30"/>
       <use xlink:href="#DejaVuSans-2e" x="63.623047"/>
       <use xlink:href="#DejaVuSans-38" x="95.410156"/>
       <use xlink:href="#DejaVuSans-30" x="159.033203"/>
      </g>
     </g>
    </g>
    <g id="ytick_3">
     <g id="line2d_5">
      <g>
       <use xlink:href="#mda81f8a8ed" x="50.14375" y="209.92599" style="stroke: #000000; stroke-width: 0.8"/>
      </g>
     </g>
     <g id="text_6">
      <!-- 0.85 -->
      <g transform="translate(20.878125 213.725209)scale(0.1 -0.1)">
       <use xlink:href="#DejaVuSans-30"/>
       <use xlink:href="#DejaVuSans-2e" x="63.623047"/>
       <use xlink:href="#DejaVuSans-38" x="95.410156"/>
       <use xlink:href="#DejaVuSans-35" x="159.033203"/>
      </g>
     </g>
    </g>
    <g id="ytick_4">
     <g id="line2d_6">
      <g>
       <use xlink:href="#mda81f8a8ed" x="50.14375" y="160.194297" style="stroke: #000000; stroke-width: 0.8"/>
      </g>
     </g>
     <g id="text_7">
      <!-- 0.90 -->
      <g transform="translate(20.878125 163.993516)scale(0.1 -0.1)">
       <defs>
        <path id="DejaVuSans-39" d="M 703 97 
L 703 672 
Q 941 559 1184 500 
Q 1428 441 1663 441 
Q 2288 441 2617 861 
Q 2947 1281 2994 2138 
Q 2813 1869 2534 1725 
Q 2256 1581 1919 1581 
Q 1219 1581 811 2004 
Q 403 2428 403 3163 
Q 403 3881 828 4315 
Q 1253 4750 1959 4750 
Q 2769 4750 3195 4129 
Q 3622 3509 3622 2328 
Q 3622 1225 3098 567 
Q 2575 -91 1691 -91 
Q 1453 -91 1209 -44 
Q 966 3 703 97 
z
M 1959 2075 
Q 2384 2075 2632 2365 
Q 2881 2656 2881 3163 
Q 2881 3666 2632 3958 
Q 2384 4250 1959 4250 
Q 1534 4250 1286 3958 
Q 1038 3666 1038 3163 
Q 1038 2656 1286 2365 
Q 1534 2075 1959 2075 
z
" transform="scale(0.015625)"/>
       </defs>
       <use xlink:href="#DejaVuSans-30"/>
       <use xlink:href="#DejaVuSans-2e" x="63.623047"/>
       <use xlink:href="#DejaVuSans-39" x="95.410156"/>
       <use xlink:href="#DejaVuSans-30" x="159.033203"/>
      </g>
     </g>
    </g>
    <g id="ytick_5">
     <g id="line2d_7">
      <g>
       <use xlink:href="#mda81f8a8ed" x="50.14375" y="110.462605" style="stroke: #000000; stroke-width: 0.8"/>
      </g>
     </g>
     <g id="text_8">
      <!-- 0.95 -->
      <g transform="translate(20.878125 114.261823)scale(0.1 -0.1)">
       <use xlink:href="#DejaVuSans-30"/>
       <use xlink:href="#DejaVuSans-2e" x="63.623047"/>
       <use xlink:href="#DejaVuSans-39" x="95.410156"/>
       <use xlink:href="#DejaVuSans-35" x="159.033203"/>
      </g>
     </g>
    </g>
    <g id="ytick_6">
     <g id="line2d_8">
      <g>
       <use xlink:href="#mda81f8a8ed" x="50.14375" y="60.730912" style="stroke: #000000; stroke-width: 0.8"/>
      </g>
     </g>
     <g id="text_9">
      <!-- 1.00 -->
      <g transform="translate(20.878125 64.53013)scale(0.1 -0.1)">
       <defs>
        <path id="DejaVuSans-31" d="M 794 531 
L 1825 531 
L 1825 4091 
L 703 3866 
L 703 4441 
L 1819 4666 
L 2450 4666 
L 2450 531 
L 3481 531 
L 3481 0 
L 794 0 
L 794 531 
z
" transform="scale(0.015625)"/>
       </defs>
       <use xlink:href="#DejaVuSans-31"/>
       <use xlink:href="#DejaVuSans-2e" x="63.623047"/>
       <use xlink:href="#DejaVuSans-30" x="95.410156"/>
       <use xlink:href="#DejaVuSans-30" x="159.033203"/>
      </g>
     </g>
    </g>
    <g id="ytick_7">
     <g id="line2d_9">
      <g>
       <use xlink:href="#mda81f8a8ed" x="50.14375" y="10.999219" style="stroke: #000000; stroke-width: 0.8"/>
      </g>
     </g>
     <g id="text_10">
      <!-- 1.05 -->
      <g transform="translate(20.878125 14.798438)scale(0.1 -0.1)">
       <use xlink:href="#DejaVuSans-31"/>
       <use xlink:href="#DejaVuSans-2e" x="63.623047"/>
       <use xlink:href="#DejaVuSans-30" x="95.410156"/>
       <use xlink:href="#DejaVuSans-35" x="159.033203"/>
      </g>
     </g>
    </g>
    <g id="text_11">
     <!-- compile speed relative to baseline -->
     <g transform="translate(14.798438 247.86618)rotate(-90)scale(0.1 -0.1)">
      <defs>
       <path id="DejaVuSans-62" d="M 3116 1747 
Q 3116 2381 2855 2742 
Q 2594 3103 2138 3103 
Q 1681 3103 1420 2742 
Q 1159 2381 1159 1747 
Q 1159 1113 1420 752 
Q 1681 391 2138 391 
Q 2594 391 2855 752 
Q 3116 1113 3116 1747 
z
M 1159 2969 
Q 1341 3281 1617 3432 
Q 1894 3584 2278 3584 
Q 2916 3584 3314 3078 
Q 3713 2572 3713 1747 
Q 3713 922 3314 415 
Q 2916 -91 2278 -91 
Q 1894 -91 1617 61 
Q 1341 213 1159 525 
L 1159 0 
L 581 0 
L 581 4863 
L 1159 4863 
L 1159 2969 
z
" transform="scale(0.015625)"/>
      </defs>
      <use xlink:href="#DejaVuSans-63"/>
      <use xlink:href="#DejaVuSans-6f" x="54.980469"/>
      <use xlink:href="#DejaVuSans-6d" x="116.162109"/>
      <use xlink:href="#DejaVuSans-70" x="213.574219"/>
      <use xlink:href="#DejaVuSans-69" x="277.050781"/>
      <use xlink:href="#DejaVuSans-6c" x="304.833984"/>
      <use xlink:href="#DejaVuSans-65" x="332.617188"/>
      <use xlink:href="#DejaVuSans-20" x="394.140625"/>
      <use xlink:href="#DejaVuSans-73" x="425.927734"/>
      <use xlink:href="#DejaVuSans-70" x="478.027344"/>
      <use xlink:href="#DejaVuSans-65" x="541.503906"/>
      <use xlink:href="#DejaVuSans-65" x="603.027344"/>
      <use xlink:href="#DejaVuSans-64" x="664.550781"/>
      <use xlink:href="#DejaVuSans-20" x="728.027344"/>
      <use xlink:href="#DejaVuSans-72" x="759.814453"/>
      <use xlink:href="#DejaVuSans-65" x="798.677734"/>
      <use xlink:href="#DejaVuSans-6c" x="860.201172"/>
      <use xlink:href="#DejaVuSans-61" x="887.984375"/>
      <use xlink:href="#DejaVuSans-74" x="949.263672"/>
      <use xlink:href="#DejaVuSans-69" x="988.472656"/>
      <use xlink:href="#DejaVuSans-76" x="1016.255859"/>
      <use xlink:href="#DejaVuSans-65" x="1075.435547"/>
      <use xlink:href="#DejaVuSans-20" x="1136.958984"/>
      <use xlink:href="#DejaVuSans-74" x="1168.746094"/>
      <use xlink:href="#DejaVuSans-6f" x="1207.955078"/>
      <use xlink:href="#DejaVuSans-20" x="1269.136719"/>
      <use xlink:href="#DejaVuSans-62" x="1300.923828"/>
      <use xlink:href="#DejaVuSans-61" x="1364.400391"/>
      <use xlink:href="#DejaVuSans-73" x="1425.679688"/>
      <use xlink:href="#DejaVuSans-65" x="1477.779297"/>
      <use xlink:href="#DejaVuSans-6c" x="1539.302734"/>
      <use xlink:href="#DejaVuSans-69" x="1567.085938"/>
      <use xlink:href="#DejaVuSans-6e" x="1594.869141"/>
      <use xlink:href="#DejaVuSans-65" x="1658.248047"/>
     </g>
    </g>
   </g>
   <g id="patch_3">
    <path d="M 50.14375 314.344084 
L 50.14375 9.407027 
" style="fill: none; stroke: #000000; stroke-width: 0.8; stroke-linejoin: miter; stroke-linecap: square"/>
   </g>
   <g id="patch_4">
    <path d="M 50.14375 314.344084 
L 334.355749 314.344084 
" style="fill: none; stroke: #000000; stroke-width: 0.8; stroke-linejoin: miter; stroke-linecap: square"/>
   </g>
   <g id="PathCollection_3">
    <defs>
     <path id="C0_0_cd3b19769b" d="M 0 2.5 
C 0.663008 2.5 1.29895 2.236584 1.767767 1.767767 
C 2.236584 1.29895 2.5 0.663008 2.5 -0 
C 2.5 -0.663008 2.236584 -1.29895 1.767767 -1.767767 
C 1.29895 -2.236584 0.663008 -2.5 0 -2.5 
C -0.663008 -2.5 -1.29895 -2.236584 -1.767767 -1.767767 
C -2.236584 -1.29895 -2.5 -0.663008 -2.5 0 
C -2.5 0.663008 -2.236584 1.29895 -1.767767 1.767767 
C -1.29895 2.236584 -0.663008 2.5 0 2.5 
z
"/>
    </defs>
    <g clip-path="url(#p17bf2b5998)">
     <use xlink:href="#C0_0_cd3b19769b" x="121.19675" y="208.321322" style="fill: #ff7f0e"/>
    </g>
    <g clip-path="url(#p17bf2b5998)">
     <use xlink:href="#C0_0_cd3b19769b" x="121.19675" y="185.761478" style="fill: #ff7f0e"/>
    </g>
    <g clip-path="url(#p17bf2b5998)">
     <use xlink:href="#C0_0_cd3b19769b" x="121.19675" y="162.455496" style="fill: #ff7f0e"/>
    </g>
    <g clip-path="url(#p17bf2b5998)">
     <use xlink:href="#C0_0_cd3b19769b" x="121.19675" y="133.356475" style="fill: #ff7f0e"/>
    </g>
    <g clip-path="url(#p17bf2b5998)">
     <use xlink:href="#C0_0_cd3b19769b" x="116.590906" y="131.85081" style="fill: #ff7f0e"/>
    </g>
    <g clip-path="url(#p17bf2b5998)">
     <use xlink:href="#C0_0_cd3b19769b" x="121.19675" y="110.769598" style="fill: #ff7f0e"/>
    </g>
    <g clip-path="url(#p17bf2b5998)">
     <use xlink:href="#C0_0_cd3b19769b" x="121.19675" y="105.167435" style="fill: #ff7f0e"/>
    </g>
    <g clip-path="url(#p17bf2b5998)">
     <use xlink:href="#C0_0_cd3b19769b" x="117.385181" y="102.196444" style="fill: #ff7f0e"/>
    </g>
    <g clip-path="url(#p17bf2b5998)">
     <use xlink:href="#C0_0_cd3b19769b" x="123.018011" y="100.714729" style="fill: #ff7f0e"/>
    </g>
    <g clip-path="url(#p17bf2b5998)">
     <use xlink:href="#C0_0_cd3b19769b" x="119.851416" y="97.075677" style="fill: #ff7f0e"/>
    </g>
    <g clip-path="url(#p17bf2b5998)">
     <use xlink:href="#C0_0_cd3b19769b" x="125.477299" y="96.573842" style="fill: #ff7f0e"/>
    </g>
    <g clip-path="url(#p17bf2b5998)">
     <use xlink:href="#C0_0_cd3b19769b" x="115.807127" y="94.423694" style="fill: #ff7f0e"/>
    </g>
    <g clip-path="url(#p17bf2b5998)">
     <use xlink:href="#C0_0_cd3b19769b" x="121.19675" y="92.284945" style="fill: #ff7f0e"/>
    </g>
    <g clip-path="url(#p17bf2b5998)">
     <use xlink:href="#C0_0_cd3b19769b" x="121.19675" y="75.95512" style="fill: #ff7f0e"/>
    </g>
    <g clip-path="url(#p17bf2b5998)">
     <use xlink:href="#C0_0_cd3b19769b" x="118.601564" y="71.896426" style="fill: #1f77b4"/>
    </g>
   </g>
   <g id="PathCollection_4">
    <defs>
     <path id="C1_0_5403d24449" d="M 0 2.5 
C 0.663008 2.5 1.29895 2.236584 1.767767 1.767767 
C 2.236584 1.29895 2.5 0.663008 2.5 -0 
C 2.5 -0.663008 2.236584 -1.29895 1.767767 -1.767767 
C 1.29895 -2.236584 0.663008 -2.5 0 -2.5 
C -0.663008 -2.5 -1.29895 -2.236584 -1.767767 -1.767767 
C -2.236584 -1.29895 -2.5 -0.663008 -2.5 0 
C -2.5 0.663008 -2.236584 1.29895 -1.767767 1.767767 
C -1.29895 2.236584 -0.663008 2.5 0 2.5 
z
"/>
    </defs>
    <g clip-path="url(#p17bf2b5998)">
     <use xlink:href="#C1_0_5403d24449" x="263.302749" y="300.483308" style="fill: #ff7f0e"/>
    </g>
    <g clip-path="url(#p17bf2b5998)">
     <use xlink:href="#C1_0_5403d24449" x="263.302749" y="233.301263" style="fill: #ff7f0e"/>
    </g>
    <g clip-path="url(#p17bf2b5998)">
     <use xlink:href="#C1_0_5403d24449" x="263.302749" y="221.688261" style="fill: #ff7f0e"/>
    </g>
    <g clip-path="url(#p17bf2b5998)">
     <use xlink:href="#C1_0_5403d24449" x="263.302749" y="210.618755" style="fill: #ff7f0e"/>
    </g>
    <g clip-path="url(#p17bf2b5998)">
     <use xlink:href="#C1_0_5403d24449" x="263.302749" y="197.554855" style="fill: #ff7f0e"/>
    </g>
    <g clip-path="url(#p17bf2b5998)">
     <use xlink:href="#C1_0_5403d24449" x="259.711983" y="194.325236" style="fill: #ff7f0e"/>
    </g>
    <g clip-path="url(#p17bf2b5998)">
     <use xlink:href="#C1_0_5403d24449" x="263.302749" y="189.861755" style="fill: #ff7f0e"/>
    </g>
    <g clip-path="url(#p17bf2b5998)">
     <use xlink:href="#C1_0_5403d24449" x="260.141381" y="186.218246" style="fill: #ff7f0e"/>
    </g>
    <g clip-path="url(#p17bf2b5998)">
     <use xlink:href="#C1_0_5403d24449" x="263.302749" y="182.572229" style="fill: #ff7f0e"/>
    </g>
    <g clip-path="url(#p17bf2b5998)">
     <use xlink:href="#C1_0_5403d24449" x="263.302749" y="170.635491" style="fill: #ff7f0e"/>
    </g>
    <g clip-path="url(#p17bf2b5998)">
     <use xlink:href="#C1_0_5403d24449" x="259.736797" y="167.379008" style="fill: #ff7f0e"/>
    </g>
    <g clip-path="url(#p17bf2b5998)">
     <use xlink:href="#C1_0_5403d24449" x="266.330913" y="166.882613" style="fill: #ff7f0e"/>
    </g>
    <g clip-path="url(#p17bf2b5998)">
     <use xlink:href="#C1_0_5403d24449" x="271.135775" y="166.22732" style="fill: #ff7f0e"/>
    </g>
    <g clip-path="url(#p17bf2b5998)">
     <use xlink:href="#C1_0_5403d24449" x="263.302749" y="141.391198" style="fill: #ff7f0e"/>
    </g>
    <g clip-path="url(#p17bf2b5998)">
     <use xlink:href="#C1_0_5403d24449" x="263.302749" y="23.267802" style="fill: #1f77b4"/>
    </g>
   </g>
  </g>
  <g id="legend_1">
   <g id="text_12">
    <!-- benchmark category -->
    <g transform="translate(340.764892 164.031417)scale(0.1 -0.1)">
     <defs>
      <path id="DejaVuSans-68" d="M 3513 2113 
L 3513 0 
L 2938 0 
L 2938 2094 
Q 2938 2591 2744 2837 
Q 2550 3084 2163 3084 
Q 1697 3084 1428 2787 
Q 1159 2491 1159 1978 
L 1159 0 
L 581 0 
L 581 4863 
L 1159 4863 
L 1159 2956 
Q 1366 3272 1645 3428 
Q 1925 3584 2291 3584 
Q 2894 3584 3203 3211 
Q 3513 2838 3513 2113 
z
" transform="scale(0.015625)"/>
      <path id="DejaVuSans-6b" d="M 581 4863 
L 1159 4863 
L 1159 1991 
L 2875 3500 
L 3609 3500 
L 1753 1863 
L 3688 0 
L 2938 0 
L 1159 1709 
L 1159 0 
L 581 0 
L 581 4863 
z
" transform="scale(0.015625)"/>
      <path id="DejaVuSans-79" d="M 2059 -325 
Q 1816 -950 1584 -1140 
Q 1353 -1331 966 -1331 
L 506 -1331 
L 506 -850 
L 844 -850 
Q 1081 -850 1212 -737 
Q 1344 -625 1503 -206 
L 1606 56 
L 191 3500 
L 800 3500 
L 1894 763 
L 2988 3500 
L 3597 3500 
L 2059 -325 
z
" transform="scale(0.015625)"/>
     </defs>
     <use xlink:href="#DejaVuSans-62"/>
     <use xlink:href="#DejaVuSans-65" x="63.476562"/>
     <use xlink:href="#DejaVuSans-6e" x="125"/>
     <use xlink:href="#DejaVuSans-63" x="188.378906"/>
     <use xlink:href="#DejaVuSans-68" x="243.359375"/>
     <use xlink:href="#DejaVuSans-6d" x="306.738281"/>
     <use xlink:href="#DejaVuSans-61" x="404.150391"/>
     <use xlink:href="#DejaVuSans-72" x="465.429688"/>
     <use xlink:href="#DejaVuSans-6b" x="506.542969"/>
     <use xlink:href="#DejaVuSans-20" x="564.453125"/>
     <use xlink:href="#DejaVuSans-63" x="596.240234"/>
     <use xlink:href="#DejaVuSans-61" x="651.220703"/>
     <use xlink:href="#DejaVuSans-74" x="712.5"/>
     <use xlink:href="#DejaVuSans-65" x="751.708984"/>
     <use xlink:href="#DejaVuSans-67" x="813.232422"/>
     <use xlink:href="#DejaVuSans-6f" x="876.708984"/>
     <use xlink:href="#DejaVuSans-72" x="937.890625"/>
     <use xlink:href="#DejaVuSans-79" x="979.003906"/>
    </g>
   </g>
   <g id="PathCollection_5">
    <defs>
     <path id="mda8d8ea52a" d="M 0 3.872983 
C 1.027127 3.872983 2.012324 3.464901 2.738613 2.738613 
C 3.464901 2.012324 3.872983 1.027127 3.872983 0 
C 3.872983 -1.027127 3.464901 -2.012324 2.738613 -2.738613 
C 2.012324 -3.464901 1.027127 -3.872983 0 -3.872983 
C -1.027127 -3.872983 -2.012324 -3.464901 -2.738613 -2.738613 
C -3.464901 -2.012324 -3.872983 -1.027127 -3.872983 0 
C -3.872983 1.027127 -3.464901 2.012324 -2.738613 2.738613 
C -2.012324 3.464901 -1.027127 3.872983 0 3.872983 
z
" style="stroke: #1f77b4"/>
    </defs>
    <g>
     <use xlink:href="#mda8d8ea52a" x="350.387549" y="176.084542" style="fill: #1f77b4; stroke: #1f77b4"/>
    </g>
   </g>
   <g id="text_13">
    <!-- bootstrapJVMCI -->
    <g transform="translate(368.387549 178.709542)scale(0.1 -0.1)">
     <defs>
      <path id="DejaVuSans-4a" d="M 628 4666 
L 1259 4666 
L 1259 325 
Q 1259 -519 939 -900 
Q 619 -1281 -91 -1281 
L -331 -1281 
L -331 -750 
L -134 -750 
Q 284 -750 456 -515 
Q 628 -281 628 325 
L 628 4666 
z
" transform="scale(0.015625)"/>
      <path id="DejaVuSans-56" d="M 1831 0 
L 50 4666 
L 709 4666 
L 2188 738 
L 3669 4666 
L 4325 4666 
L 2547 0 
L 1831 0 
z
" transform="scale(0.015625)"/>
      <path id="DejaVuSans-4d" d="M 628 4666 
L 1569 4666 
L 2759 1491 
L 3956 4666 
L 4897 4666 
L 4897 0 
L 4281 0 
L 4281 4097 
L 3078 897 
L 2444 897 
L 1241 4097 
L 1241 0 
L 628 0 
L 628 4666 
z
" transform="scale(0.015625)"/>
      <path id="DejaVuSans-43" d="M 4122 4306 
L 4122 3641 
Q 3803 3938 3442 4084 
Q 3081 4231 2675 4231 
Q 1875 4231 1450 3742 
Q 1025 3253 1025 2328 
Q 1025 1406 1450 917 
Q 1875 428 2675 428 
Q 3081 428 3442 575 
Q 3803 722 4122 1019 
L 4122 359 
Q 3791 134 3420 21 
Q 3050 -91 2638 -91 
Q 1578 -91 968 557 
Q 359 1206 359 2328 
Q 359 3453 968 4101 
Q 1578 4750 2638 4750 
Q 3056 4750 3426 4639 
Q 3797 4528 4122 4306 
z
" transform="scale(0.015625)"/>
      <path id="DejaVuSans-49" d="M 628 4666 
L 1259 4666 
L 1259 0 
L 628 0 
L 628 4666 
z
" transform="scale(0.015625)"/>
     </defs>
     <use xlink:href="#DejaVuSans-62"/>
     <use xlink:href="#DejaVuSans-6f" x="63.476562"/>
     <use xlink:href="#DejaVuSans-6f" x="124.658203"/>
     <use xlink:href="#DejaVuSans-74" x="185.839844"/>
     <use xlink:href="#DejaVuSans-73" x="225.048828"/>
     <use xlink:href="#DejaVuSans-74" x="277.148438"/>
     <use xlink:href="#DejaVuSans-72" x="316.357422"/>
     <use xlink:href="#DejaVuSans-61" x="357.470703"/>
     <use xlink:href="#DejaVuSans-70" x="418.75"/>
     <use xlink:href="#DejaVuSans-4a" x="482.226562"/>
     <use xlink:href="#DejaVuSans-56" x="511.71875"/>
     <use xlink:href="#DejaVuSans-4d" x="580.126953"/>
     <use xlink:href="#DejaVuSans-43" x="666.40625"/>
     <use xlink:href="#DejaVuSans-49" x="736.230469"/>
    </g>
   </g>
   <g id="PathCollection_6">
    <defs>
     <path id="md0b47942ba" d="M 0 3.872983 
C 1.027127 3.872983 2.012324 3.464901 2.738613 2.738613 
C 3.464901 2.012324 3.872983 1.027127 3.872983 0 
C 3.872983 -1.027127 3.464901 -2.012324 2.738613 -2.738613 
C 2.012324 -3.464901 1.027127 -3.872983 0 -3.872983 
C -1.027127 -3.872983 -2.012324 -3.464901 -2.738613 -2.738613 
C -3.464901 -2.012324 -3.872983 -1.027127 -3.872983 0 
C -3.872983 1.027127 -3.464901 2.012324 -2.738613 2.738613 
C -2.012324 3.464901 -1.027127 3.872983 0 3.872983 
z
" style="stroke: #ff7f0e"/>
    </defs>
    <g>
     <use xlink:href="#md0b47942ba" x="350.387549" y="190.762667" style="fill: #ff7f0e; stroke: #ff7f0e"/>
    </g>
   </g>
   <g id="text_14">
    <!-- renanaissance -->
    <g transform="translate(368.387549 193.387667)scale(0.1 -0.1)">
     <use xlink:href="#DejaVuSans-72"/>
     <use xlink:href="#DejaVuSans-65" x="38.863281"/>
     <use xlink:href="#DejaVuSans-6e" x="100.386719"/>
     <use xlink:href="#DejaVuSans-61" x="163.765625"/>
     <use xlink:href="#DejaVuSans-6e" x="225.044922"/>
     <use xlink:href="#DejaVuSans-61" x="288.423828"/>
     <use xlink:href="#DejaVuSans-69" x="349.703125"/>
     <use xlink:href="#DejaVuSans-73" x="377.486328"/>
     <use xlink:href="#DejaVuSans-73" x="429.585938"/>
     <use xlink:href="#DejaVuSans-61" x="481.685547"/>
     <use xlink:href="#DejaVuSans-6e" x="542.964844"/>
     <use xlink:href="#DejaVuSans-63" x="606.34375"/>
     <use xlink:href="#DejaVuSans-65" x="661.324219"/>
    </g>
   </g>
  </g>
 </g>
 <defs>
  <clipPath id="p17bf2b5998">
   <rect x="50.14375" y="9.407027" width="284.211999" height="304.937057"/>
  </clipPath>
 </defs>
</svg>
