<svg xmlns="http://www.w3.org/2000/svg" width="320" height="64" viewBox="0 0 520 104"><defs><style>.a{fill:#00758f;}.a,.b{fill-rule:evenodd;}.b{fill:#f29111;}</style></defs><path class="a" d="M67.943,91.127A63.4,63.4,0,0,1,61.858,95.9a46.408,46.408,0,0,1-7.315,4.123,45.6,45.6,0,0,1-8.765,2.893A47.124,47.124,0,0,1,35.348,104Q18.833,104,9.416,92.139T0,56.411A86.6,86.6,0,0,1,2.752,33.341a46.834,46.834,0,0,1,7.9-16.49A32.6,32.6,0,0,1,22.961,7.015,38.3,38.3,0,0,1,38.969,3.761,32.093,32.093,0,0,1,54.833,7.666,37.1,37.1,0,0,1,67.074,18.949L59.83,27.338a40.141,40.141,0,0,0-8.909-4.629,29.3,29.3,0,0,0-10.213-1.736,17.543,17.543,0,0,0-7.678,1.736,16.89,16.89,0,0,0-6.374,5.569,29.945,29.945,0,0,0-4.346,9.836,56.683,56.683,0,0,0-1.594,14.392,80.841,80.841,0,0,0,1.449,16.779,31.776,31.776,0,0,0,4.056,10.631A14.772,14.772,0,0,0,32.6,85.557,20.578,20.578,0,0,0,41,87.221a15.015,15.015,0,0,0,3.984-.579A14.314,14.314,0,0,0,48.531,85.2V61.33H38.39V48.167H67.943ZM118.392,46.72q-2.318-.723-3.984-1.085a14.723,14.723,0,0,0-3.114-.362q-2.9,0-5.795,2.893a73.258,73.258,0,0,0-6.664,7.955v46.431H80.147V29.942H94.2L96.952,42.67a78.226,78.226,0,0,1,8.909-10.559,12.105,12.105,0,0,1,8.475-3.616,15.875,15.875,0,0,1,2.97.289q1.521.289,3.4.723ZM165.8,70.153h-5.5a33.183,33.183,0,0,0-8.33.867,14.634,14.634,0,0,0-5.07,2.242,7.347,7.347,0,0,0-2.535,3.327,11.75,11.75,0,0,0-.724,4.122q0,4.34,2.39,6.581a9.253,9.253,0,0,0,6.591,2.242,19.926,19.926,0,0,0,6.954-1.23,27.378,27.378,0,0,0,6.229-3.254Zm4.781,32.4-2.028-8.245a40.43,40.43,0,0,1-9.706,6.8A26.016,26.016,0,0,1,146.821,104q-11.155,0-16.659-5.5t-5.5-15.477a23.618,23.618,0,0,1,1.956-9.547,20.312,20.312,0,0,1,6.3-7.883,33.412,33.412,0,0,1,11.155-5.424,59.128,59.128,0,0,1,16.66-2.025h5.07V53.23q0-5.786-4.056-8.1a19.277,19.277,0,0,0-9.706-2.314A56.1,56.1,0,0,0,141.171,43.9a97.249,97.249,0,0,0-10.141,2.531L129,35.149a138.271,138.271,0,0,1,13.328-4.556,58.29,58.29,0,0,1,16.225-2.1q13.763,0,19.774,6t6.012,17.574v50.481Zm65.95-32.4h-5.5a33.181,33.181,0,0,0-8.33.867,14.636,14.636,0,0,0-5.071,2.242,7.35,7.35,0,0,0-2.535,3.327,11.761,11.761,0,0,0-.724,4.122q0,4.34,2.39,6.581a9.254,9.254,0,0,0,6.592,2.242,19.927,19.927,0,0,0,6.954-1.23,27.389,27.389,0,0,0,6.229-3.254Zm4.781,32.4-2.029-8.245a40.429,40.429,0,0,1-9.706,6.8A26.015,26.015,0,0,1,217.552,104q-11.155,0-16.66-5.5t-5.5-15.477a23.619,23.619,0,0,1,1.956-9.547,20.313,20.313,0,0,1,6.3-7.883A33.41,33.41,0,0,1,214.8,60.172a59.13,59.13,0,0,1,16.66-2.025h5.07V53.23q0-5.786-4.056-8.1a19.274,19.274,0,0,0-9.706-2.314A56.1,56.1,0,0,0,211.9,43.9a97.243,97.243,0,0,0-10.14,2.531l-2.028-11.282a138.275,138.275,0,0,1,13.328-4.556,58.287,58.287,0,0,1,16.225-2.1q13.763,0,19.775,6t6.012,17.574v50.481Zm58.272-.723a54.609,54.609,0,0,1-6.736,1.591,42.766,42.766,0,0,1-7.171.579Q278,104,274.3,100.673t-3.694-12.584V0h18.543V81.58q0,5.931,1.159,7.666a4.2,4.2,0,0,0,3.766,1.736h2.029a22.385,22.385,0,0,0,2.462-.145Z" transform="translate(0)"/><path class="b" d="M143.431,1.04q-5.5,24.735-12.531,49.324T115.906,98.676H90.989Q82.876,74.231,75.923,49.931T63.319,1.04H85.484q1.593,8.679,3.767,18.225t4.636,19.527q2.463,9.98,5.215,20.178t5.65,19.889q2.463-8.245,5-17.719t5.07-19.527q2.535-10.053,4.781-20.395T123.729,1.04Z" transform="translate(236.008 3.878)"/><path class="b" d="M165.417,98.676q-.29-19.238-1.014-38.186t-2.318-38.765H161.8l-22.02,76.951H125.144l-21.3-76.951h-.29q-1.593,19.816-2.318,38.765t-1.014,38.186H81.683q.725-24.59,2.318-48.89T88.057,1.04h28.829l17.529,63.065h.29L152.813,1.04h26.946q2.461,24.445,4.056,48.746t2.316,48.89Z" transform="translate(304.455 3.878)"/><path class="b" d="M110.57,21.974v8.8h-3.38v-8.8h-2.184V19.089h7.753v2.885Z" transform="translate(391.386 71.15)"/><path class="b" d="M118.472,30.77q-.071-2.322-.1-4.327t-.109-4.046l-2.676,8.373h-3.03l-2.751-8.3q-.071,2.04-.071,4.046V30.77h-2.817q0-2.955.142-5.876t.35-5.805h4.373l2.4,7.67,2.463-7.67h4.3q.277,2.955.421,5.841t.142,5.84Z" transform="translate(398.498 71.15)"/></svg>
