<svg width="64" height="64" viewBox="0 0 64 64" fill="none" xmlns="http://www.w3.org/2000/svg">
<path fill-rule="evenodd" clip-rule="evenodd" d="M50 4H14C8.47715 4 4 8.47715 4 14V22.961H19.331V14.3714C19.331 12.313 21.8048 11.2573 23.2916 12.6785L40.4708 29.0767C40.933 29.5172 41.1954 30.1294 41.1954 30.7697C41.1954 31.41 40.933 32.0222 40.4708 32.4626L23.2916 48.8609C21.8048 50.2821 19.331 49.2263 19.331 47.168V38.5784H4V50C4 55.5229 8.47715 60 14 60H50C55.5229 60 60 55.5229 60 50V14C60 8.47715 55.5229 4 50 4ZM49.3953 52.7975C50.0066 53.7815 50.8019 54.5048 52.2085 54.5048C53.3901 54.5048 54.1449 53.9226 54.1449 53.118C54.1449 52.154 53.3694 51.8125 52.0688 51.2516L51.3558 50.9501C49.298 50.0857 47.9309 49.0029 47.9309 46.7138C47.9309 44.6052 49.5605 43 52.1073 43C53.9204 43 55.2239 43.6221 56.1633 45.2511L53.9426 46.6568C53.4537 45.7925 52.9262 45.452 52.1073 45.452C51.272 45.452 50.7426 45.9744 50.7426 46.6568C50.7426 47.5003 51.2725 47.8418 52.496 48.3642L53.209 48.6653C55.632 49.6896 57 50.734 57 53.082C57 55.6133 54.9831 57 52.2745 57C49.626 57 47.915 55.7557 47.0778 54.1249L49.3953 52.7975ZM39.3213 53.0411C39.7693 53.8247 40.1769 54.4872 41.1567 54.4872C42.0936 54.4872 42.6846 54.1258 42.6846 52.7205V43.1605H45.5363V52.7585C45.5363 55.6698 43.8051 56.9948 41.278 56.9948C38.9948 56.9948 37.6725 55.8298 37 54.4267L39.3213 53.0411Z" fill="#8EC9E6"/>
</svg>
