<svg width="64" height="64" viewBox="0 0 64 64" fill="none" xmlns="http://www.w3.org/2000/svg">
<path d="M20.9576 54.6634C11.1405 54.6634 5.33203 47.6723 5.33203 32.6709C5.33203 17.2823 12.8585 9.33325 22.6756 9.33325C24.9854 9.36887 27.257 9.92674 29.319 10.9648C31.3809 12.0028 33.1794 13.4939 34.5788 15.3256L31.511 18.3218C29.1389 16.2702 26.1406 15.0779 23.0028 14.9384C16.724 14.9384 12.654 20.4824 12.654 31.4276C12.654 44.085 16.3967 48.9768 22.1438 48.9768C24.2673 49.0365 26.3468 48.3673 28.0341 47.0812V34.6276H22.3075V29.4098H35.0697V49.4863C31.1792 52.9073 26.1452 54.754 20.9576 54.6634ZM57.8268 27.6569C56.9292 27.3885 56.0019 27.231 55.0658 27.1881C53.1637 27.1881 51.4048 28.6353 48.1938 32.6098V54.0112H41.465V21.5218H47.028L47.6007 27.0658C51.1389 22.5002 53.3682 20.9511 55.7816 20.9511C56.7877 20.9642 57.7762 21.2158 58.6654 21.6849L57.8268 27.6569Z" fill="#8E8E8E"/>
</svg>
